<svg width="187" height="32" viewBox="0 0 187 32" fill="none" xmlns="http://www.w3.org/2000/svg">
<g clip-path="url(#clip0_4014_1307)">
<path d="M19.0454 7.23156L7.73131 9.68295C7.03989 9.87152 7.03989 10.0915 7.73131 10.3429L19.1397 14.3972C19.7683 14.5229 20.1454 14.24 20.2711 13.5486V8.1744C20.2083 7.42013 19.7997 7.10585 19.0454 7.23156ZM0.0942843 11.0972L0 12.2286V21.0913C0.0628562 21.9085 0.439993 22.1913 1.13141 21.9399L15.4626 17.32C16.154 17.0686 16.154 16.7857 15.4626 16.4714L0.0942843 11.0972ZM0 26.937V31.1798C0.0628562 31.8712 0.408565 32.0598 1.03713 31.7455L9.23986 25.9941C9.93128 25.617 10.5913 25.617 11.2198 25.9941L19.234 31.7455C19.8626 32.0598 20.2083 31.8712 20.2711 31.1798V20.3371C20.1454 19.6457 19.7683 19.3628 19.1397 19.4885L1.13141 25.4284C0.502849 25.6798 0.125712 26.1827 0 26.937ZM19.0454 3.83733C19.7997 3.64876 20.2083 3.17734 20.2711 2.42306V1.29165C20.2083 0.537377 19.7997 0.128812 19.0454 0.0659561H1.2257C0.471421 0.128812 0.0628562 0.537377 0 1.29165V6.85442C0 7.67155 0.0628562 8.08012 0.188569 8.08012L0.282853 7.98583L19.0454 3.83733Z" fill="#1F7F89"/>
<path d="M37.8079 15.5286C36.4962 14.7787 35.1047 14.1778 33.6594 13.7372C33.0309 13.5486 32.4966 13.2972 32.0566 12.9829C31.6795 12.6058 31.4595 12.1972 31.3966 11.7572C31.3966 10.1229 32.6223 9.30581 35.0737 9.30581C36.3937 9.30581 37.5565 9.58867 38.5622 10.1544C38.8765 10.2801 39.0336 10.1858 39.0336 9.87152V8.64582C39.0336 8.3944 38.8765 8.1744 38.5622 7.98583C37.4308 7.48298 36.1737 7.23156 34.7908 7.23156C32.9052 7.23156 31.4909 7.67155 30.5481 8.55154C29.6052 9.43153 29.1338 10.5001 29.1338 11.7572C29.1338 12.6372 29.3538 13.36 29.7938 13.9257C30.1709 14.4914 30.7052 14.9314 31.3966 15.2457L33.4709 16L35.5451 16.7543C36.2365 16.9428 36.7708 17.2885 37.148 17.7914C37.5879 18.2942 37.8079 18.86 37.8079 19.4885C37.8079 20.9971 36.5508 21.7513 34.0366 21.7513C32.528 21.7513 31.1138 21.3742 29.7938 20.6199C29.4795 20.4942 29.3224 20.5885 29.3224 20.9028V22.2228C29.3224 22.537 29.4795 22.7885 29.7938 22.977C31.3023 23.5427 32.7794 23.857 34.2251 23.9199C36.048 23.9199 37.4937 23.5113 38.5622 22.6942C39.5679 21.9399 40.0708 20.8713 40.0708 19.4885C40.1058 17.8519 39.2357 16.3293 37.8079 15.5286ZM51.4792 12.0401H50.9135C50.4735 12.1029 50.222 12.3543 50.1592 12.7943V19.1114C50.1592 20.1799 49.9392 20.9656 49.4992 21.4685C48.9963 21.9085 48.2735 22.1285 47.3307 22.1285C46.3878 22.1285 45.665 21.9085 45.1621 21.4685C44.785 20.9656 44.565 20.1799 44.5021 19.1114V12.7943C44.5021 12.3543 44.2507 12.1029 43.7479 12.0401H43.1821C42.6793 12.1029 42.4279 12.3543 42.4279 12.7943V19.0171C42.365 20.5885 42.805 21.8456 43.7479 22.7885C44.6278 23.6684 45.8221 24.1084 47.3307 24.1084C48.8392 24.1084 50.0649 23.6684 51.0077 22.7885C51.8249 21.8456 52.2334 20.5885 52.2334 19.0171V12.7943C52.2334 12.3543 51.982 12.1029 51.4792 12.0401ZM61.7561 15.9057C61.7561 16.4714 61.599 16.9428 61.2847 17.32C60.9704 17.6971 60.3419 17.8543 59.399 17.7914H57.5134L57.3248 17.6028V14.2086L57.5134 13.9257H59.399C60.3419 13.9257 60.9704 14.1143 61.2847 14.4914C61.599 14.8057 61.7561 15.2772 61.7561 15.9057ZM59.5876 12.0401H55.9105C55.4705 12.1029 55.2191 12.3543 55.1562 12.7943V23.1656C55.2191 23.6684 55.4705 23.9199 55.9105 23.9199H56.5705C57.0105 23.9199 57.2619 23.6684 57.3248 23.1656V19.9599L57.5134 19.6771H59.5876C60.9076 19.6771 61.9447 19.3628 62.699 18.7342C63.4533 18.1057 63.8304 17.1628 63.8304 15.9057C63.8304 14.6486 63.4533 13.7057 62.699 13.0772C61.9447 12.4486 60.9076 12.1029 59.5876 12.0401ZM73.5417 12.0401H67.1303C66.6275 12.1029 66.3761 12.3543 66.3761 12.7943V23.1656C66.3761 23.6684 66.6275 23.9199 67.1303 23.9199H73.5417C73.9817 23.9199 74.2331 23.6684 74.296 23.1656V22.6942C74.2331 22.2542 73.9817 22.0028 73.5417 21.9399H68.7332C68.5446 21.9399 68.4503 21.877 68.4503 21.7513V19.2057C68.4503 19.0799 68.5446 19.0171 68.7332 19.0171H72.8817C73.3217 18.9542 73.5731 18.7028 73.636 18.2628V17.7914C73.5731 17.2885 73.3217 17.0371 72.8817 17.0371H68.7332C68.5446 16.9743 68.4503 16.88 68.4503 16.7543V14.3029C68.4503 14.1143 68.5446 14.02 68.7332 14.02H73.5417C73.9817 13.9572 74.2331 13.7057 74.296 13.2658V12.7943C74.2331 12.3543 73.9817 12.1029 73.5417 12.0401ZM83.8187 15.8114C83.8815 16.3143 83.7244 16.7543 83.3472 17.1314C83.033 17.4457 82.4044 17.6028 81.4616 17.6028H79.4816C79.293 17.6028 79.1987 17.54 79.1987 17.4143V14.2086C79.1987 14.02 79.293 13.9257 79.4816 13.9257H81.4616C83.6301 13.9257 83.8187 14.9629 83.8187 15.8114ZM83.6301 19.3942L83.5358 19.2999L83.7244 19.2057C84.2901 18.8914 84.7615 18.5457 85.1386 18.1685C85.6415 17.54 85.8929 16.7228 85.8929 15.7171C85.8929 14.5857 85.5158 13.6743 84.7615 12.9829C83.9444 12.3543 82.8758 12.0401 81.5558 12.0401H77.8788C77.3759 12.1029 77.1245 12.3543 77.1245 12.7943V23.1656C77.1245 23.6684 77.3759 23.9199 77.8788 23.9199H78.4445C78.9473 23.9199 79.1987 23.6684 79.1987 23.1656V19.8657C79.1987 19.6771 79.293 19.5828 79.4816 19.5828H80.9901L81.5558 19.8657L83.8187 23.4485C84.0701 23.7627 84.3844 23.9199 84.7615 23.9199H85.7043L86.1758 23.7313C86.2386 23.5427 86.2072 23.3542 86.0815 23.1656L83.6301 19.3942ZM97.4899 15.5286C96.1778 14.7794 94.7864 14.1786 93.3414 13.7372C92.65 13.5486 92.1157 13.2972 91.7385 12.9829C91.2985 12.6058 91.0786 12.1972 91.0786 11.7572C91.0786 10.1229 92.3042 9.30581 94.7556 9.30581C96.0128 9.30581 97.1756 9.58867 98.2442 10.1544C98.5584 10.2801 98.7156 10.1858 98.7156 9.87152V8.64582C98.7156 8.3944 98.5584 8.1744 98.2442 7.98583C97.0499 7.48298 95.7928 7.23156 94.4728 7.23156C92.5242 7.23156 91.0786 7.67155 90.1357 8.55154C89.2557 9.43153 88.8157 10.5001 88.8157 11.7572C88.8157 12.6372 89.0043 13.36 89.3814 13.9257C89.8843 14.4914 90.4186 14.9314 90.9843 15.2457L93.1528 16L95.2271 16.7543C95.8556 16.9428 96.3899 17.2885 96.8299 17.7914C97.2699 18.2942 97.4899 18.86 97.4899 19.4885C97.4899 20.9971 96.2013 21.7513 93.6242 21.7513C92.2414 21.7513 90.8271 21.3742 89.3814 20.6199C89.1929 20.4942 89.0672 20.5885 89.0043 20.9028V22.2228C89.0043 22.537 89.1614 22.7885 89.4757 22.977C90.9214 23.5427 92.3671 23.857 93.8128 23.9199C95.6985 23.9199 97.1442 23.5113 98.1499 22.6942C99.2184 21.9399 99.7527 20.8713 99.7527 19.4885C99.7877 17.8519 98.9177 16.3293 97.4899 15.5286ZM111.915 12.0401H111.35C110.847 12.1029 110.595 12.3543 110.595 12.7943V19.1114C110.595 20.1799 110.344 20.9656 109.841 21.4685C109.464 21.9085 108.773 22.1285 107.767 22.1285C106.761 22.1285 106.038 21.9085 105.598 21.4685C105.158 20.9656 104.938 20.1799 104.938 19.1114V12.7943C104.875 12.3543 104.624 12.1029 104.184 12.0401H103.524C103.084 12.1029 102.833 12.3543 102.77 12.7943V19.0171C102.77 20.5885 103.21 21.8456 104.09 22.7885C104.97 23.6684 106.195 24.1084 107.767 24.1084C109.275 24.1084 110.47 23.6684 111.35 22.7885C112.23 21.8456 112.67 20.5885 112.67 19.0171V12.7943C112.607 12.3543 112.355 12.1029 111.915 12.0401ZM126.341 12.0401H125.587C125.209 12.0401 124.864 12.1972 124.549 12.5115L121.438 16.66H121.25L118.044 12.5115C117.855 12.1972 117.541 12.0401 117.101 12.0401H116.347C115.907 12.1029 115.655 12.3543 115.592 12.7943V23.1656C115.655 23.6684 115.907 23.9199 116.347 23.9199H116.912C117.415 23.9199 117.667 23.6684 117.667 23.1656V15.4343L120.872 19.5828C121.124 19.8971 121.438 19.8971 121.815 19.5828L125.021 15.4343V23.1656C125.021 23.6684 125.241 23.9199 125.681 23.9199H126.341C126.781 23.9199 127.032 23.6684 127.095 23.1656V12.7943C127.032 12.3543 126.781 12.1029 126.341 12.0401ZM141.049 12.0401H140.295C139.918 12.0401 139.572 12.1972 139.258 12.5115L136.146 16.66H135.958L132.752 12.5115C132.501 12.1972 132.186 12.0401 131.809 12.0401H131.055C130.615 12.1029 130.364 12.3543 130.301 12.7943V23.1656C130.364 23.6684 130.615 23.9199 131.055 23.9199H131.621C132.124 23.9199 132.375 23.6684 132.375 23.1656V15.4343L135.486 19.5828C135.864 19.8971 136.209 19.8971 136.524 19.5828L139.635 15.4343V23.1656C139.698 23.6684 139.949 23.9199 140.389 23.9199H141.049C141.489 23.9199 141.741 23.6684 141.803 23.1656V12.7943C141.678 12.3543 141.426 12.1029 141.049 12.0401ZM151.138 18.7342H148.309V18.64L149.723 14.9629L151.138 18.64V18.7342ZM150.949 12.7C150.698 12.2601 150.383 12.0401 150.006 12.0401H149.441C149.063 12.1029 148.749 12.3229 148.498 12.7L144.349 23.1656V23.7313L144.915 23.9199H145.575C146.015 23.857 146.329 23.6685 146.518 23.3542L147.366 21.0913C147.492 20.9028 147.649 20.7771 147.838 20.7142H151.609C151.798 20.7771 151.955 20.9028 152.08 21.0913L152.929 23.3542C153.055 23.6685 153.338 23.857 153.778 23.9199H154.532L155.003 23.7313C155.192 23.5427 155.223 23.3542 155.098 23.1656L150.949 12.7ZM164.337 15.8114C164.337 16.3143 164.18 16.7543 163.866 17.1314C163.552 17.4457 162.923 17.6028 161.98 17.6028H159.906L159.717 17.4143V14.2086C159.717 14.02 159.78 13.9257 159.906 13.9257H161.98C164.055 13.9257 164.337 14.9629 164.337 15.8114ZM164.149 19.3942L164.055 19.2999L164.149 19.2057L165.657 18.1685C166.16 17.54 166.412 16.7228 166.412 15.7171C166.412 14.5857 166.035 13.6743 165.28 12.9829C164.463 12.3543 163.395 12.0401 162.075 12.0401H158.398C157.895 12.1029 157.643 12.3543 157.643 12.7943V23.1656C157.643 23.6684 157.895 23.9199 158.398 23.9199H158.963C159.403 23.9199 159.655 23.6684 159.717 23.1656V19.8657C159.717 19.6771 159.78 19.5828 159.906 19.5828H161.509L162.075 19.8657L164.337 23.4485C164.589 23.7627 164.903 23.9199 165.28 23.9199H166.129L166.695 23.7313L166.6 23.1656L164.149 19.3942ZM178.48 12.3229C178.354 12.1343 178.197 12.0401 178.009 12.0401H177.066C176.689 12.0401 176.374 12.1972 176.123 12.5115L173.483 16.3771H173.294L170.654 12.5115C170.403 12.1972 170.089 12.0401 169.712 12.0401H168.769C168.517 12.0401 168.36 12.1343 168.297 12.3229V12.7943L172.069 18.3571C172.257 18.5457 172.352 18.7971 172.352 19.1114V23.1656C172.352 23.6684 172.603 23.9199 173.106 23.9199H173.672C174.112 23.9199 174.363 23.6684 174.426 23.1656V19.1114L174.614 18.3571L178.386 12.7943C178.574 12.6058 178.606 12.4486 178.48 12.3229ZM184.703 14.02L185.646 11.8515C185.709 11.6629 185.803 11.5686 185.929 11.5686H186.023C186.274 11.5686 186.4 11.6943 186.4 11.9458V14.3029C186.4 14.4286 186.306 14.5229 186.117 14.5857L185.929 14.3029V12.3229L185.08 14.3972L184.703 14.5857L184.42 14.3972L183.571 12.3229V14.3029L183.383 14.5857C183.194 14.5229 183.1 14.4286 183.1 14.3029V11.9458C183.1 11.6943 183.194 11.5686 183.383 11.5686H183.571L183.854 11.8515L184.703 14.02ZM182.629 11.8515L182.44 12.0401H181.686V14.3029C181.686 14.4914 181.591 14.5857 181.403 14.5857C181.277 14.5857 181.214 14.4914 181.214 14.3029V12.0401H180.46C180.356 12.0401 180.271 11.9556 180.271 11.8515C180.271 11.7474 180.356 11.6629 180.46 11.6629H182.44L182.629 11.8515Z" fill="#1F7F89"/>
</g>
<defs>
<clipPath id="clip0_4014_1307">
<rect width="186.4" height="32" fill="white"/>
</clipPath>
</defs>
</svg>
